<svg width="22" height="22" viewBox="0 0 22 22" fill="none" xmlns="http://www.w3.org/2000/svg">
<path fill-rule="evenodd" clip-rule="evenodd" d="M19.0501 5.43134C19.3091 5.67995 19.3175 6.09142 19.0689 6.35039L14.7009 10.9004C14.5783 11.0281 14.409 11.1002 14.232 11.1002C14.055 11.1002 13.8857 11.0281 13.7631 10.9004L11.112 8.13883L7.97036 11.4114L10.2087 13.5601L3 15.6502L4.79425 8.36231L7.03256 10.5111L10.6431 6.7501C10.7657 6.62242 10.935 6.55024 11.112 6.55024C11.289 6.55024 11.4583 6.62242 11.5809 6.7501L14.232 9.51166L18.1311 5.4501C18.3797 5.19113 18.7912 5.18273 19.0501 5.43134Z" fill="#1C1C1C"/>
</svg>
