<svg width="21" height="21" viewBox="0 0 21 21" fill="none" xmlns="http://www.w3.org/2000/svg">
<path fill-rule="evenodd" clip-rule="evenodd" d="M11.1908 7.39015L18.3994 5.30005L16.6052 12.588L14.3669 10.4392L10.7563 14.2002C10.6337 14.3279 10.4644 14.4 10.2874 14.4C10.1104 14.4 9.94109 14.3279 9.81851 14.2002L7.16742 11.4386L3.26832 15.5002C3.01971 15.7592 2.60824 15.7676 2.34927 15.519C2.0903 15.2703 2.0819 14.8589 2.33051 14.5999L6.69851 10.0499C6.82109 9.92222 6.99042 9.85005 7.16742 9.85005C7.34441 9.85005 7.51374 9.92222 7.63632 10.0499L10.2874 12.8115L13.4291 9.53892L11.1908 7.39015Z" fill="#1C1C1C"/>
</svg>
