<svg width="189" height="188" viewBox="0 0 189 188" fill="none" xmlns="http://www.w3.org/2000/svg">
<path fill-rule="evenodd" clip-rule="evenodd" d="M164.266 31.1745C158.423 24.6471 148.42 24.1133 141.922 29.9822C135.424 35.8511 134.893 45.9003 140.735 52.4276C150.572 63.4173 156.538 77.9163 156.538 93.8526C156.538 117.423 143.441 137.921 124.159 148.403C129.888 151.056 134.456 156.137 136.256 162.727C137.775 168.285 137.055 173.931 134.644 178.694C166.287 163.684 188.181 131.337 188.181 93.8526C188.181 69.7687 179.122 47.7727 164.266 31.1745Z" fill="#B39E7D"/>
<path d="M58.6879 42.9681C68.6762 35.9693 80.8058 31.8669 93.9367 31.8669C107.068 31.8669 119.197 35.9693 129.185 42.9681C129.422 43.1339 129.662 43.2923 129.904 43.4434C129.42 36.8155 131.885 30.0415 137.185 25.2542C140.96 21.8449 145.579 19.9789 150.277 19.6153C149.42 18.6069 148.422 17.6907 147.288 16.8966C132.162 6.29756 113.749 0.0795898 93.9367 0.0795898C74.1248 0.0795898 55.7113 6.29756 40.5849 16.8966C33.4182 21.9184 31.6608 31.8256 36.6598 39.0251C41.6588 46.2245 51.5211 47.9899 58.6879 42.9681Z" fill="#B5D165"/>
<path fill-rule="evenodd" clip-rule="evenodd" d="M27.5188 28.6997C26.5125 29.3958 25.571 30.221 24.7182 31.1738C17.5898 39.138 11.7931 48.3457 7.69129 58.4444C4.39022 66.5717 8.2728 75.8485 16.3633 79.1646C24.4538 82.4807 33.6884 78.5805 36.9895 70.4531C39.693 63.797 43.5225 57.7073 48.2486 52.427C48.3294 52.3367 48.4089 52.2459 48.4872 52.1543C41.8997 51.806 35.535 48.5181 31.4687 42.6619C28.5203 38.4157 27.2507 33.4967 27.5188 28.6997Z" fill="#6FA836"/>
<path fill-rule="evenodd" clip-rule="evenodd" d="M3.80803 73.7666C6.07565 78.7095 10.1428 82.8331 15.5549 85.0514C21.5081 87.4915 27.9037 87.1407 33.3032 84.6066C32.8564 87.6148 32.6236 90.7014 32.6236 93.8523C32.6236 113.904 42.1014 131.731 56.8021 143.061C57.584 143.434 58.3457 143.877 59.0793 144.391C69.0675 151.39 81.1971 155.492 94.328 155.492C100.021 155.492 105.51 154.722 110.708 153.289C119.135 150.966 127.84 155.944 130.153 164.409C132.466 172.874 127.51 181.619 119.083 183.943C111.182 186.121 102.877 187.28 94.328 187.28C88.5514 187.28 82.8937 186.751 77.4017 185.74C77.5185 185.878 77.637 186.016 77.7571 186.152C34.1076 178.296 0.980469 139.961 0.980469 93.8523C0.980469 88.6563 1.4027 83.5476 2.2177 78.562C2.49893 76.8416 3.04533 75.2314 3.80803 73.7666Z" fill="#FFC530"/>
</svg>
