<svg width="32" height="24" viewBox="0 0 32 24" fill="none" xmlns="http://www.w3.org/2000/svg">
<path d="M14 3H29C29.3044 2.99985 29.6048 3.06924 29.8784 3.20282C30.152 3.3364 30.3915 3.53065 30.5786 3.77081C30.7657 4.01097 30.8956 4.29069 30.9583 4.58862C31.0209 4.88656 31.0145 5.19489 30.9399 5.49005L29.9399 11.4901C29.8308 11.9218 29.5807 12.3048 29.2292 12.5783C28.8778 12.8518 28.4453 13.0002 28 13H16C15.4696 13 14.9608 12.7893 14.5857 12.4142C14.2106 12.0392 14 11.5304 14 11V3ZM14 3C14 2.46957 13.7891 1.96089 13.4141 1.58582C13.039 1.21074 12.5304 1 12 1H11" stroke="white" stroke-width="2" stroke-linejoin="round"/>
<path d="M27 20.01C28.1046 20.01 29 19.1146 29 18.01C29 16.9054 28.1046 16.01 27 16.01C25.8954 16.01 25 16.9054 25 18.01C25 19.1146 25.8954 20.01 27 20.01Z" stroke="white" stroke-width="2" stroke-miterlimit="10"/>
<path d="M17 20.01C18.1046 20.01 19 19.1146 19 18.01C19 16.9054 18.1046 16.01 17 16.01C15.8954 16.01 15 16.9054 15 18.01C15 19.1146 15.8954 20.01 17 20.01Z" stroke="white" stroke-width="2" stroke-miterlimit="10"/>
</svg>
