<svg width="295" height="788" viewBox="0 0 295 788" fill="none" xmlns="http://www.w3.org/2000/svg">
<g style="mix-blend-mode:luminosity" opacity="0.3" filter="url(#filter0_b_490_3055)">
<rect x="0.5" width="294" height="788" rx="21" fill="url(#paint0_linear_490_3055)" fill-opacity="0.69"/>
<rect x="16.5996" y="100.636" width="260.4" height="52.932" rx="14" fill="white"/>
<rect x="242.699" y="100.636" width="35" height="52.932" rx="14" fill="#111E30"/>
<path d="M221.699 100.636H265.099V153.568H221.699V100.636Z" fill="#111E30"/>
<rect x="16.5996" y="169.568" width="260.4" height="52.932" rx="14" fill="white"/>
<rect x="242.699" y="169.568" width="35" height="52.932" rx="14" fill="#111E30"/>
<path d="M221.699 169.568H265.099V222.5H221.699V169.568Z" fill="#111E30"/>
<rect x="16.5996" y="238.5" width="260.4" height="52.932" rx="14" fill="white"/>
<rect x="242.699" y="238.5" width="35" height="52.932" rx="14" fill="#111E30"/>
<path d="M221.699 238.5H265.099V291.432H221.699V238.5Z" fill="#111E30"/>
<rect x="16.5996" y="307.432" width="260.4" height="52.932" rx="14" fill="white"/>
<rect x="242.699" y="307.432" width="35" height="52.932" rx="14" fill="#111E30"/>
<path d="M221.699 307.432H265.099V360.364H221.699V307.432Z" fill="#111E30"/>
<rect x="16.5996" y="376.364" width="260.4" height="52.932" rx="14" fill="white"/>
<rect x="242.699" y="376.364" width="35" height="52.932" rx="14" fill="#111E30"/>
<path d="M221.699 376.364H265.099V429.296H221.699V376.364Z" fill="#111E30"/>
<rect x="16.5996" y="445.296" width="260.4" height="52.932" rx="14" fill="white"/>
<rect x="242.699" y="445.296" width="35" height="52.932" rx="14" fill="#111E30"/>
<path d="M221.699 445.296H265.099V498.228H221.699V445.296Z" fill="#111E30"/>
<rect x="16.5996" y="514.228" width="260.4" height="52.932" rx="14" fill="white"/>
<rect x="242.699" y="514.228" width="35" height="52.932" rx="14" fill="#111E30"/>
<path d="M221.699 514.228H265.099V567.16H221.699V514.228Z" fill="#111E30"/>
<rect x="16.5996" y="583.16" width="260.4" height="52.932" rx="14" fill="white"/>
<rect x="242.699" y="583.16" width="35" height="52.932" rx="14" fill="#111E30"/>
<path d="M221.699 583.16H265.099V636.092H221.699V583.16Z" fill="#111E30"/>
<rect x="17.2988" y="656.095" width="260.4" height="52.932" rx="14" fill="white"/>
<rect x="243.399" y="656.095" width="35" height="52.932" rx="14" fill="#111E30"/>
<path d="M222.399 656.095H265.799V709.027H222.399V656.095Z" fill="#111E30"/>
</g>
<defs>
<filter id="filter0_b_490_3055" x="-19.5" y="-20" width="334" height="828" filterUnits="userSpaceOnUse" color-interpolation-filters="sRGB">
<feFlood flood-opacity="0" result="BackgroundImageFix"/>
<feGaussianBlur in="BackgroundImageFix" stdDeviation="10"/>
<feComposite in2="SourceAlpha" operator="in" result="effect1_backgroundBlur_490_3055"/>
<feBlend mode="normal" in="SourceGraphic" in2="effect1_backgroundBlur_490_3055" result="shape"/>
</filter>
<linearGradient id="paint0_linear_490_3055" x1="147.5" y1="0" x2="147.5" y2="788" gradientUnits="userSpaceOnUse">
<stop offset="0.00520833" stop-color="#FB9D11" stop-opacity="0.5"/>
<stop offset="0.473958" stop-color="#FB9D11"/>
<stop offset="1" stop-color="#FB9D11" stop-opacity="0.5"/>
</linearGradient>
</defs>
</svg>
