<svg width="26" height="24" viewBox="0 0 26 24" fill="none" xmlns="http://www.w3.org/2000/svg">
<path d="M26.0098 12.0132H18.0098L22.0098 6.01318L26.0098 12.0132Z" fill="white"/>
<path d="M6.61035 18.3529C7.86692 19.6362 9.47888 20.5141 11.2385 20.8738C12.9982 21.2335 14.825 21.0585 16.4844 20.3713C18.1437 19.6841 19.5597 18.5162 20.5498 17.0177C21.5399 15.5193 22.0591 13.7588 22.0405 11.9629" stroke="white" stroke-width="2" stroke-miterlimit="10"/>
<path d="M0 12.0132H8L4 18.0132L0 12.0132Z" fill="white"/>
<path d="M19.39 5.69297C18.1329 4.41323 16.522 3.53838 14.7641 3.18071C13.0061 2.82303 11.1816 2.99885 9.52431 3.68562C7.86704 4.37238 6.45268 5.53876 5.46303 7.03501C4.47338 8.53126 3.95357 10.2891 3.97011 12.083" stroke="white" stroke-width="2" stroke-miterlimit="10"/>
</svg>
