<svg width="48" height="48" viewBox="0 0 48 48" fill="none" xmlns="http://www.w3.org/2000/svg">
<rect width="48" height="48" rx="24" fill="#FFD597" fill-opacity="0.2"/>
<path d="M24 44C35.0457 44 44 35.0457 44 24C44 12.9543 35.0457 4 24 4C12.9543 4 4 12.9543 4 24C4 35.0457 12.9543 44 24 44Z" fill="#FFD597" fill-opacity="0.2" stroke="#FB9D11" stroke-opacity="0.5" stroke-width="4" stroke-miterlimit="10"/>
<path d="M24 37V21" stroke="#FB9D11" stroke-opacity="0.5" stroke-width="4" stroke-miterlimit="10"/>
<path d="M24 17C25.6569 17 27 15.6569 27 14C27 12.3431 25.6569 11 24 11C22.3431 11 21 12.3431 21 14C21 15.6569 22.3431 17 24 17Z" fill="#FB9D11" fill-opacity="0.5"/>
</svg>
