<svg width="49" height="49" viewBox="0 0 49 49" fill="none" xmlns="http://www.w3.org/2000/svg">
<rect x="0.460938" y="0.0390625" width="48" height="48" rx="24" fill="#FFD597" fill-opacity="0.2"/>
<path d="M24.4609 44.0391C35.5066 44.0391 44.4609 35.0848 44.4609 24.0391C44.4609 12.9934 35.5066 4.03906 24.4609 4.03906C13.4152 4.03906 4.46094 12.9934 4.46094 24.0391C4.46094 35.0848 13.4152 44.0391 24.4609 44.0391Z" fill="#FFD597" fill-opacity="0.2" stroke="#FB9D11" stroke-opacity="0.5" stroke-width="4" stroke-miterlimit="10"/>
<path d="M24.4609 37.0391V21.0391" stroke="#FB9D11" stroke-opacity="0.5" stroke-width="4" stroke-miterlimit="10"/>
<path d="M24.4609 17.0391C26.1178 17.0391 27.4609 15.6959 27.4609 14.0391C27.4609 12.3822 26.1178 11.0391 24.4609 11.0391C22.8041 11.0391 21.4609 12.3822 21.4609 14.0391C21.4609 15.6959 22.8041 17.0391 24.4609 17.0391Z" fill="#FB9D11" fill-opacity="0.5"/>
</svg>
