<svg width="45" height="45" viewBox="0 0 45 45" fill="none" xmlns="http://www.w3.org/2000/svg">
<circle cx="22.4609" cy="22.0391" r="22" fill="#FBCE5C"/>
<path d="M22.3498 35.0391C23.847 35.0391 25.072 33.8391 25.072 32.3724H19.6276C19.6276 33.8391 20.8526 35.0391 22.3498 35.0391ZM30.5165 27.0391V20.3724C30.5165 16.2791 28.2979 12.8524 24.3915 11.9457V11.0391C24.3915 9.9324 23.4795 9.03906 22.3498 9.03906C21.2201 9.03906 20.3082 9.9324 20.3082 11.0391V11.9457C16.4154 12.8524 14.1832 16.2657 14.1832 20.3724V27.0391L11.4609 29.7057V31.0391H33.2387V29.7057L30.5165 27.0391ZM27.7943 28.3724H16.9054V20.3724C16.9054 17.0657 18.9607 14.3724 22.3498 14.3724C25.739 14.3724 27.7943 17.0657 27.7943 20.3724V28.3724Z" fill="white"/>
</svg>
