<svg width="24" height="24" viewBox="0 0 24 24" fill="none" xmlns="http://www.w3.org/2000/svg">
<path d="M4 4H19C19.3044 3.99985 19.6048 4.06924 19.8784 4.20282C20.152 4.3364 20.3915 4.53065 20.5786 4.77081C20.7657 5.01097 20.8956 5.29069 20.9583 5.58862C21.0209 5.88656 21.0145 6.19489 20.9399 6.49005L19.9399 12.4901C19.8308 12.9218 19.5807 13.3048 19.2292 13.5783C18.8778 13.8518 18.4453 14.0002 18 14H6C5.46957 14 4.96077 13.7893 4.58569 13.4142C4.21062 13.0392 4 12.5304 4 12V4ZM4 4C4 3.46957 3.78914 2.96089 3.41406 2.58582C3.03899 2.21074 2.53043 2 2 2H1" stroke="#9B620C" stroke-width="2" stroke-linejoin="round"/>
<path d="M17 21.01C18.1046 21.01 19 20.1146 19 19.01C19 17.9054 18.1046 17.01 17 17.01C15.8954 17.01 15 17.9054 15 19.01C15 20.1146 15.8954 21.01 17 21.01Z" stroke="#9B620C" stroke-width="2" stroke-miterlimit="10"/>
<path d="M7 21.01C8.10457 21.01 9 20.1146 9 19.01C9 17.9054 8.10457 17.01 7 17.01C5.89543 17.01 5 17.9054 5 19.01C5 20.1146 5.89543 21.01 7 21.01Z" stroke="#9B620C" stroke-width="2" stroke-miterlimit="10"/>
</svg>
