<svg width="44" height="44" viewBox="0 0 44 44" fill="none" xmlns="http://www.w3.org/2000/svg">
<circle cx="22" cy="22" r="22" fill="#FBCE5C"/>
<path d="M21.8889 35C23.3861 35 24.6111 33.8 24.6111 32.3333H19.1667C19.1667 33.8 20.3917 35 21.8889 35ZM30.0556 27V20.3333C30.0556 16.24 27.8369 12.8133 23.9306 11.9067V11C23.9306 9.89333 23.0186 9 21.8889 9C20.7592 9 19.8472 9.89333 19.8472 11V11.9067C15.9544 12.8133 13.7222 16.2267 13.7222 20.3333V27L11 29.6667V31H32.7778V29.6667L30.0556 27ZM27.3333 28.3333H16.4444V20.3333C16.4444 17.0267 18.4997 14.3333 21.8889 14.3333C25.2781 14.3333 27.3333 17.0267 27.3333 20.3333V28.3333Z" fill="white"/>
</svg>
