<svg width="8" height="7" viewBox="0 0 8 7" fill="none" xmlns="http://www.w3.org/2000/svg">
<mask id="path-1-inside-1_662_4959" fill="white">
<path d="M4.03891 0.0390625C4.58063 1.50306 5.73491 2.65733 7.19891 3.19906C5.73491 3.74079 4.58063 4.89506 4.03891 6.35906C3.49718 4.89506 2.3429 3.74079 0.878906 3.19906C2.3429 2.65733 3.49718 1.50306 4.03891 0.0390625Z"/>
</mask>
<path d="M2.23929 6.87544C4.77627 5.93667 6.77652 3.93642 7.71528 1.39945L0.362528 -1.32132C0.217838 -0.930301 -0.0904574 -0.622006 -0.481476 -0.477316L2.23929 6.87544ZM7.71528 4.99868C6.77652 2.4617 4.77627 0.461451 2.23929 -0.477316L-0.481477 6.87544C-0.0904572 7.02013 0.217838 7.32843 0.362528 7.71945L7.71528 4.99868ZM5.83852 -0.477316C3.30155 0.461451 1.30129 2.4617 0.362528 4.99868L7.71528 7.71945C7.85998 7.32843 8.16827 7.02013 8.55929 6.87544L5.83852 -0.477316ZM0.362528 1.39945C1.30129 3.93642 3.30155 5.93667 5.83852 6.87544L8.55929 -0.477316C8.16827 -0.622006 7.85998 -0.930301 7.71528 -1.32132L0.362528 1.39945Z" fill="#9B620C" mask="url(#path-1-inside-1_662_4959)"/>
</svg>
