<svg width="24" height="24" viewBox="0 0 24 24" fill="none" xmlns="http://www.w3.org/2000/svg">
<mask id="path-1-inside-1_577_6436" fill="white">
<path d="M12.3428 0.943359C14.293 6.21375 18.4484 10.3691 23.7188 12.3194C18.4484 14.2696 14.293 18.425 12.3428 23.6954C10.3926 18.425 6.23719 14.2696 0.966797 12.3194C6.23719 10.3691 10.3926 6.21375 12.3428 0.943359Z"/>
</mask>
<path d="M5.86417 25.5543C14.9973 22.1748 22.1982 14.9739 25.5778 5.84074L-0.892166 -3.95402C-1.41305 -2.54635 -2.52291 -1.43649 -3.93058 -0.915603L5.86417 25.5543ZM25.5778 18.798C22.1982 9.66486 14.9973 2.46396 5.86418 -0.915603L-3.93058 25.5543C-2.52291 26.0752 -1.41305 27.1851 -0.892166 28.5927L25.5778 18.798ZM18.8214 -0.915603C9.6883 2.46396 2.48739 9.66486 -0.892165 18.798L25.5778 28.5927C26.0986 27.1851 27.2085 26.0752 28.6162 25.5543L18.8214 -0.915603ZM-0.892166 5.84074C2.48739 14.9739 9.6883 22.1748 18.8214 25.5543L28.6162 -0.915603C27.2085 -1.43649 26.0986 -2.54635 25.5778 -3.95402L-0.892166 5.84074Z" fill="#9B620C" mask="url(#path-1-inside-1_577_6436)"/>
</svg>
