<svg width="15" height="16" viewBox="0 0 15 16" fill="none" xmlns="http://www.w3.org/2000/svg">
<mask id="path-1-inside-1_577_6434" fill="white">
<path d="M7.74936 0.966797C8.95899 4.23578 11.5364 6.81317 14.8054 8.0228C11.5364 9.23243 8.95899 11.8098 7.74936 15.0788C6.53973 11.8098 3.96234 9.23243 0.693359 8.0228C3.96234 6.81317 6.53973 4.23578 7.74936 0.966797Z"/>
</mask>
<path d="M5.59074 21.2578C12.7224 18.6188 18.3454 12.9959 20.9843 5.86417L-5.4856 -3.93058C-5.2659 -4.52433 -4.79777 -4.99246 -4.20402 -5.21217L5.59074 21.2578ZM20.9843 10.1814C18.3454 3.04971 12.7224 -2.5732 5.59074 -5.21217L-4.20402 21.2578C-4.79776 21.0381 -5.2659 20.5699 -5.4856 19.9762L20.9843 10.1814ZM9.90798 -5.21217C2.77627 -2.5732 -2.84663 3.04971 -5.4856 10.1814L20.9843 19.9762C20.7646 20.5699 20.2965 21.0381 19.7027 21.2578L9.90798 -5.21217ZM-5.4856 5.86418C-2.84663 12.9959 2.77627 18.6188 9.90798 21.2578L19.7027 -5.21217C20.2965 -4.99246 20.7646 -4.52433 20.9843 -3.93058L-5.4856 5.86418Z" fill="#9B620C" mask="url(#path-1-inside-1_577_6434)"/>
</svg>
