<svg width="22" height="34" viewBox="0 0 22 34" fill="none" xmlns="http://www.w3.org/2000/svg">
<mask id="path-1-inside-1_577_6431" fill="white">
<path d="M10.9847 0L11.793 3.44133C13.0895 8.9609 16.5983 13.7046 21.4967 16.56C16.5983 19.4154 13.0895 24.1591 11.793 29.6787L10.9847 33.12L10.1763 29.6787C8.87982 24.1591 5.37097 19.4154 0.472656 16.56C5.37097 13.7046 8.87982 8.96091 10.1763 3.44134L10.9847 0Z"/>
</mask>
<path d="M10.9847 0L24.7228 -3.22695L-2.75344 -3.22695L10.9847 0ZM10.9847 33.12L-2.75344 36.347H24.7228L10.9847 33.12ZM-2.75344 3.22695L-1.9451 6.66829L25.5311 0.214381L24.7228 -3.22695L-2.75344 3.22695ZM-1.9451 26.4517L-2.75344 29.893L24.7228 36.347L25.5311 32.9056L-1.9451 26.4517ZM24.7228 29.893L23.9144 26.4517L-3.56178 32.9056L-2.75344 36.347L24.7228 29.893ZM23.9144 6.66829L24.7228 3.22695L-2.75344 -3.22695L-3.56178 0.214383L23.9144 6.66829ZM7.57961 28.7518C15.8253 23.9452 21.7319 15.9597 23.9144 6.66829L-3.56178 0.214383C-3.9723 1.96207 -5.08332 3.4641 -6.6343 4.36821L7.57961 28.7518ZM23.9144 26.4517C21.7319 17.1603 15.8253 9.17484 7.57961 4.36821L-6.6343 28.7518C-5.08332 29.6559 -3.97229 31.1579 -3.56178 32.9056L23.9144 26.4517ZM14.3897 4.36821C6.14406 9.17484 0.237373 17.1603 -1.9451 26.4517L25.5311 32.9056C25.9416 31.1579 27.0526 29.6559 28.6036 28.7518L14.3897 4.36821ZM-1.9451 6.66829C0.237372 15.9597 6.14406 23.9452 14.3897 28.7518L28.6036 4.36821C27.0526 3.4641 25.9416 1.96207 25.5311 0.214381L-1.9451 6.66829Z" fill="#9B620C" mask="url(#path-1-inside-1_577_6431)"/>
</svg>
