<svg width="7" height="10" viewBox="0 0 7 10" fill="none" xmlns="http://www.w3.org/2000/svg">
<mask id="path-1-inside-1_662_4908" fill="white">
<path d="M3.43953 0L3.66407 0.955927C4.02421 2.48914 4.99889 3.80684 6.35953 4.6C4.99889 5.39316 4.02421 6.71086 3.66407 8.24407L3.43953 9.2L3.21499 8.24407C2.85486 6.71086 1.88017 5.39316 0.519531 4.6C1.88017 3.80684 2.85486 2.48914 3.21499 0.955926L3.43953 0Z"/>
</mask>
<path d="M3.43953 0L7.25567 -0.896376L-0.376607 -0.896376L3.43953 0ZM3.43953 9.2L-0.376607 10.0964H7.25567L3.43953 9.2ZM3.66407 0.955927L-0.152068 1.8523L3.66407 0.955927ZM-0.376607 0.896376L-0.152068 1.8523L7.48021 0.0595517L7.25567 -0.896376L-0.376607 0.896376ZM-0.152069 7.3477L-0.376607 8.30362L7.25567 10.0964L7.48021 9.14045L-0.152069 7.3477ZM7.25567 8.30362L7.03113 7.3477L-0.601146 9.14045L-0.376607 10.0964L7.25567 8.30362ZM7.03113 1.8523L7.25567 0.896376L-0.376607 -0.896376L-0.601145 0.0595509L7.03113 1.8523ZM2.49368 7.98661C4.78414 6.65143 6.42489 4.43326 7.03113 1.8523L-0.601145 0.0595509C-0.715177 0.54502 -1.0238 0.96225 -1.45462 1.21339L2.49368 7.98661ZM7.03113 7.3477C6.42489 4.76674 4.78414 2.54857 2.49368 1.21339L-1.45462 7.98661C-1.0238 8.23775 -0.715177 8.65498 -0.601146 9.14045L7.03113 7.3477ZM4.38538 1.21339C2.09492 2.54857 0.454175 4.76674 -0.152069 7.3477L7.48021 9.14045C7.59424 8.65498 7.90286 8.23775 8.33368 7.98661L4.38538 1.21339ZM-0.152068 1.8523C0.454175 4.43326 2.09492 6.65143 4.38538 7.98661L8.33368 1.21339C7.90286 0.96225 7.59424 0.54502 7.48021 0.0595517L-0.152068 1.8523Z" fill="#9B620C" mask="url(#path-1-inside-1_662_4908)"/>
</svg>
