<svg width="15" height="15" viewBox="0 0 15 15" fill="none" xmlns="http://www.w3.org/2000/svg">
<mask id="path-1-inside-1_577_6437" fill="white">
<path d="M7.84311 0.046875C9.05274 3.31586 11.6301 5.89324 14.8991 7.10288C11.6301 8.31251 9.05274 10.8899 7.84311 14.1589C6.63348 10.8899 4.05609 8.31251 0.787109 7.10288C4.05609 5.89324 6.63348 3.31585 7.84311 0.046875Z"/>
</mask>
<path d="M5.68449 20.3378C12.8162 17.6989 18.4391 12.076 21.0781 4.94425L-5.39185 -4.8505C-5.17215 -5.44425 -4.70402 -5.91238 -4.11027 -6.13209L5.68449 20.3378ZM21.0781 9.2615C18.4391 2.12979 12.8162 -3.49312 5.68449 -6.13209L-4.11027 20.3378C-4.70401 20.1181 -5.17215 19.65 -5.39185 19.0563L21.0781 9.2615ZM10.0017 -6.13209C2.87002 -3.49312 -2.75288 2.12979 -5.39185 9.2615L21.0781 19.0563C20.8584 19.65 20.3902 20.1181 19.7965 20.3378L10.0017 -6.13209ZM-5.39185 4.94425C-2.75288 12.076 2.87002 17.6989 10.0017 20.3378L19.7965 -6.13209C20.3902 -5.91238 20.8584 -5.44425 21.0781 -4.8505L-5.39185 4.94425Z" fill="#9B620C" mask="url(#path-1-inside-1_577_6437)"/>
</svg>
