<svg width="22" height="23" viewBox="0 0 22 23" fill="none" xmlns="http://www.w3.org/2000/svg">
<mask id="path-1-inside-1_577_6432" fill="white">
<path d="M11.249 0.880859C13.0635 5.78433 16.9296 9.65041 21.833 11.4649C16.9296 13.2793 13.0635 17.1454 11.249 22.0489C9.43459 17.1454 5.56851 13.2793 0.665039 11.4649C5.56851 9.65041 9.43459 5.78433 11.249 0.880859Z"/>
</mask>
<path d="M5.56242 24.6998C14.3286 21.456 21.2402 14.5444 24.484 5.77824L-1.98592 -4.01652C-2.37103 -2.97578 -3.1916 -2.15521 -4.23234 -1.7701L5.56242 24.6998ZM24.484 17.1515C21.2402 8.38529 14.3286 1.47368 5.56242 -1.7701L-4.23234 24.6998C-3.1916 25.0849 -2.37103 25.9055 -1.98592 26.9462L24.484 17.1515ZM16.9357 -1.7701C8.16947 1.47368 1.25786 8.38529 -1.98592 17.1515L24.484 26.9462C24.8691 25.9055 25.6897 25.0849 26.7304 24.6998L16.9357 -1.7701ZM-1.98592 5.77824C1.25786 14.5444 8.16947 21.456 16.9357 24.6998L26.7304 -1.7701C25.6897 -2.15521 24.8691 -2.97578 24.484 -4.01652L-1.98592 5.77824Z" fill="#9B620C" mask="url(#path-1-inside-1_577_6432)"/>
</svg>
