<svg width="8" height="7" viewBox="0 0 8 7" fill="none" xmlns="http://www.w3.org/2000/svg">
<mask id="path-1-inside-1_662_4867" fill="white">
<path d="M4.03891 0.0400391C4.58063 1.50404 5.73491 2.65831 7.19891 3.20004C5.73491 3.74177 4.58063 4.89604 4.03891 6.36004C3.49718 4.89604 2.3429 3.74177 0.878906 3.20004C2.3429 2.65831 3.49718 1.50404 4.03891 0.0400391Z"/>
</mask>
<path d="M2.23929 6.87642C4.77627 5.93765 6.77652 3.9374 7.71528 1.40042L0.362528 -1.32034C0.217838 -0.929325 -0.0904574 -0.62103 -0.481476 -0.476339L2.23929 6.87642ZM7.71528 4.99966C6.77652 2.46268 4.77627 0.462427 2.23929 -0.476339L-0.481477 6.87642C-0.0904572 7.02111 0.217838 7.3294 0.362528 7.72042L7.71528 4.99966ZM5.83852 -0.476339C3.30155 0.462427 1.30129 2.46268 0.362528 4.99966L7.71528 7.72042C7.85998 7.3294 8.16827 7.02111 8.55929 6.87642L5.83852 -0.476339ZM0.362528 1.40042C1.30129 3.9374 3.30155 5.93765 5.83852 6.87642L8.55929 -0.476339C8.16827 -0.62103 7.85998 -0.929324 7.71528 -1.32034L0.362528 1.40042Z" fill="#9B620C" mask="url(#path-1-inside-1_662_4867)"/>
</svg>
