<svg width="208" height="196" viewBox="0 0 208 196" fill="none" xmlns="http://www.w3.org/2000/svg">
<path fill-rule="evenodd" clip-rule="evenodd" d="M9.44037 72.4259L9.85329 18.883C9.85764 18.3197 9.63577 17.7781 9.2374 17.3797C9.07757 17.2199 8.89302 17.0869 8.69084 16.9858L8.30892 16.7948C7.99996 16.6404 7.67502 16.5202 7.3399 16.4364L7.15138 16.3892C6.84559 16.3128 6.53465 16.2587 6.22101 16.2273L6.10439 16.2157C5.53776 16.159 4.96674 16.1621 4.40077 16.225L3.95609 16.2744L3.45724 16.3853C2.92966 16.5025 2.42591 16.7088 1.96761 16.9952L1.6943 17.166C1.57056 17.2434 1.456 17.3345 1.35281 17.4377C0.991225 17.7993 0.788086 18.2897 0.788086 18.8011V68.8344V72.7224L1.02448 74.85C1.15447 76.0199 1.41527 77.1716 1.80199 78.2834C2.18091 79.3728 2.67839 80.4172 3.28549 81.3979L4.24409 82.9464L7.26809 86.8344L9.57209 89.5704L11.1561 91.1544L11.367 91.3653C11.693 91.6913 11.8761 92.1334 11.8761 92.5944L11.4572 180.29C11.4499 181.804 10.2212 183.026 8.70809 183.026H7.44101C6.76379 183.026 6.10062 183.22 5.52927 183.583L5.47198 183.62C5.04327 183.892 4.68398 184.261 4.42254 184.697C4.11732 185.206 3.95609 185.788 3.95609 186.381V186.641C3.95609 186.919 3.98349 187.195 4.03789 187.467L4.24409 188.498L4.60435 189.759C4.74773 190.261 4.9462 190.746 5.19612 191.204L5.2506 191.304C5.53811 191.831 5.89965 192.314 6.32421 192.739C6.56904 192.983 6.83368 193.208 7.11544 193.409L8.33505 194.28C8.58311 194.457 8.84844 194.609 9.127 194.733C9.70528 194.99 10.3311 195.122 10.9639 195.122H11.4441H199.94C201.342 195.122 202.706 194.668 203.828 193.826L203.867 193.794C204.986 192.862 205.945 191.754 206.708 190.514L207.344 189.242C207.591 188.749 207.762 188.222 207.853 187.679L207.898 187.409C207.968 186.986 207.968 186.555 207.898 186.132L207.878 186.015C207.772 185.379 207.491 184.786 207.067 184.301C206.829 184.029 206.55 183.796 206.241 183.61L206.187 183.578C205.586 183.217 204.898 183.026 204.196 183.026H202.801C197.881 183.026 193.892 179.038 193.892 174.118V7.39629C193.892 6.9847 193.796 6.57877 193.612 6.21064C193.511 6.00866 193.385 5.82041 193.236 5.65046L192.452 4.75443L191.732 3.89043L190.58 2.73843C190.006 2.16428 189.368 1.65717 188.68 1.22683L188.564 1.15443L187.931 0.758858C187.587 0.543538 187.215 0.37527 186.826 0.258531C186.262 0.0893981 185.671 0.0311225 185.085 0.0869271L184.01 0.189311C183.304 0.256534 182.607 0.398078 181.931 0.611591L180.212 1.15443L177.62 2.16243L175.316 3.31443L175.124 3.41485C173.239 4.40264 171.426 5.52402 169.7 6.77043L167.252 8.78643C165.719 10.1282 164.297 11.5928 163.002 13.1657L162.932 13.2504L161.204 15.5544L159.476 18.0024L158.036 20.5944L158.011 20.6476C157.166 22.4318 156.499 24.2951 156.02 26.2104L155.444 28.9464C155.196 30.6816 153.71 31.9704 151.957 31.9704H69.561C64.1061 31.9704 59.6841 27.5484 59.6841 22.0936V18.9258C59.6841 18.3346 59.4492 17.7676 59.0312 17.3495C58.8911 17.2094 58.7329 17.0886 58.5609 16.9903L58.3643 16.878C57.9986 16.669 57.6015 16.5203 57.1884 16.4377L56.3721 16.2744C55.3183 16.1786 54.2579 16.1786 53.2041 16.2744L52.3739 16.4589C52.0645 16.5277 51.7647 16.6341 51.4813 16.7758L51.1245 16.9542C50.8815 17.0757 50.6663 17.2461 50.4924 17.4548C50.1976 17.8087 50.0361 18.2547 50.0361 18.7153V72.7436C50.0361 73.5896 49.9213 74.4316 49.6949 75.2467C49.4438 76.1507 49.0581 77.0118 48.5507 77.801L48.0201 78.6264C47.1595 79.9651 46.134 81.1903 44.9678 82.2732L44.7081 82.5144C43.6555 83.567 42.4868 84.4967 41.2245 85.2857L40.8201 85.5384L39.3472 86.5581C39.0835 86.7407 38.7878 86.8721 38.4756 86.9456C37.3181 87.218 36.5001 88.2508 36.5001 89.4398V183.046C36.5001 184.423 35.9867 185.751 35.0601 186.77L34.5296 187.301C34.3082 187.522 34.0584 187.713 33.7866 187.868C33.3913 188.094 32.956 188.241 32.5048 188.302L31.0281 188.498H28.7241H26.2761L24.7994 188.302C24.3481 188.241 23.9128 188.094 23.5176 187.868C23.2458 187.713 22.9959 187.522 22.7746 187.301L22.2441 186.77C21.3175 185.751 20.8041 184.423 20.8041 183.046V89.8584C20.8041 88.3516 19.9736 86.9675 18.6441 86.2584L16.7721 84.9624L15.0441 83.5224L13.4601 81.9384L13.4309 81.9027C12.5877 80.8721 11.827 79.7766 11.1561 78.6264L10.6389 77.5921C10.3125 76.9392 10.0497 76.2563 9.85433 75.5529C9.57155 74.5349 9.43222 73.4824 9.44037 72.4259ZM59.7472 153.618L56.9495 149.621L54.9335 146.309L53.0615 142.853C52.1035 140.842 51.3326 138.746 50.7585 136.593L50.4695 135.509L49.4615 130.245L49.0295 125.061V121.605L49.4615 118.005L50.0375 113.541L51.0455 109.013L51.5943 107.093C51.9956 105.688 52.5262 104.324 53.1795 103.018C53.9624 101.452 54.917 99.9776 56.0256 98.6227L56.9495 97.4934L58.9655 94.3254L61.5575 91.1574L61.7235 90.9986C63.8172 88.996 66.0736 87.1706 68.4695 85.5414L68.5043 85.5154C70.3924 84.0993 72.4636 82.9455 74.6615 82.0854L77.9735 80.7894C79.5834 80.1594 80.078 78.1213 78.936 76.8235L78.1175 75.8934L76.086 73.1848C75.1392 71.9224 74.3289 70.5489 73.6794 69.1107C72.9959 67.5974 72.4861 65.998 72.1706 64.3677C71.9118 63.0306 71.7815 61.6718 71.7815 60.3098V58.0374V53.7576C71.7815 53.4435 71.8106 53.1301 71.8685 52.8214C72.319 50.4186 74.417 48.6774 76.8616 48.6774H76.9655L81.2855 49.2534L85.6055 50.1174L86.3753 50.374C88.4498 51.0655 90.4574 51.9436 92.3735 52.9974L94.5335 54.5814L95.7776 55.4596C96.5787 56.0251 97.3301 56.658 98.0235 57.3515C98.7673 58.0952 99.4413 58.9055 100.037 59.7723L100.725 60.7734L102.021 62.9334L103.174 65.3814L103.193 65.429C103.54 66.2708 104.742 66.2399 105.046 65.3814L106.197 62.9334C106.868 61.4959 107.657 60.1164 108.556 58.8092L108.789 58.4694C109.745 57.0362 110.893 55.741 112.201 54.62L112.245 54.5814C113.587 53.5272 115.013 52.5842 116.508 51.7619L117.142 51.4134C118.578 50.8388 120.085 50.4026 121.605 50.1174L124.198 49.6854L126.502 49.3974L131.542 48.9654L132.412 48.9171C134.755 48.7869 136.725 50.6513 136.725 52.9974L136.438 55.8774L136.15 57.8934L135.789 60.1254L135.43 62.3574L134.997 64.5174L134.277 66.8214L132.693 70.2774L130.822 73.4454L128.661 76.7574C127.587 78.1188 128.132 80.1316 129.748 80.7637L133.126 82.0854L135.075 82.9788C136.077 83.4384 137.039 83.9826 137.949 84.6054L139.318 85.5414L139.777 85.8726C141.867 87.3774 143.832 89.0484 145.654 90.8694L148.534 94.1814L150.837 97.4934C152.562 99.888 154.059 102.449 155.301 105.125C155.97 106.557 156.502 108.057 156.885 109.589L157.462 112.037L157.893 114.053L158.182 116.501L158.47 118.949L158.902 124.709L158.758 127.733L158.47 130.325L158.038 133.061L157.462 135.509L156.885 137.525L156.31 139.109L154.725 142.709L152.997 146.309L150.837 149.621L149.586 152.124C149.461 152.375 149.317 152.617 149.156 152.847C148.049 154.428 147.814 156.462 148.531 158.254L149.397 160.421C149.972 162.242 150.381 164.11 150.617 166.004L150.694 166.613V169.061V169.641C150.694 170.979 150.552 172.313 150.272 173.621L150.262 173.669C149.974 175.009 149.54 176.313 148.965 177.557L148.621 178.19C148.278 178.818 147.814 179.372 147.255 179.819C146.861 180.134 146.42 180.394 145.955 180.588C145.286 180.867 144.56 181.013 143.835 181.013H137.503C136.414 181.013 135.329 180.868 134.277 180.581L134.065 180.493C133.059 180.074 132.114 179.522 131.254 178.853L130.102 177.845L128.806 176.549L128.282 175.876C127.959 175.462 127.671 175.022 127.42 174.561L127.022 173.832C126.963 173.724 126.916 173.61 126.88 173.492C126.656 172.743 125.966 172.229 125.183 172.229H123.946C123.635 172.229 123.326 172.272 123.026 172.355L120.885 172.949L117.502 173.84C116.116 174.205 114.688 174.389 113.254 174.389H112.153C111.736 174.389 111.321 174.338 110.917 174.237C110.556 174.147 110.206 174.017 109.873 173.851L109.759 173.794C109.402 173.616 109.066 173.396 108.76 173.14L108.478 172.906C108.398 172.839 108.325 172.765 108.26 172.683C107.958 172.306 107.498 172.092 107.016 172.102L102.319 172.207C101.666 172.221 101.044 172.487 100.581 172.949L99.8615 173.525L99.1415 173.957L98.6515 174.202C98.4027 174.327 98.1429 174.428 97.8754 174.504C97.4734 174.619 97.0574 174.677 96.6393 174.677H96.2615L95.1095 174.533L93.9575 174.389L88.4855 172.949L86.1045 172.354C85.7731 172.271 85.4328 172.229 85.0911 172.229H84.4048C83.363 172.229 82.3975 172.776 81.8615 173.669L80.8535 174.965L79.8455 176.117L78.5495 177.269L77.3975 178.421L76.1015 179.429L75.4151 179.944C75.1056 180.176 74.7719 180.374 74.4197 180.534C73.7249 180.85 72.9707 181.013 72.2075 181.013H64.714C64.1503 181.013 63.5911 180.912 63.0632 180.714C62.8278 180.626 62.5998 180.519 62.3815 180.394L61.7015 180.005L61.1589 179.644C60.9452 179.501 60.746 179.338 60.5643 179.156C60.363 178.955 60.1844 178.732 60.0316 178.492L59.6507 177.894C59.3864 177.478 59.1583 177.041 58.9689 176.586C58.6799 175.893 58.4832 175.164 58.3839 174.419L58.2455 173.381L58.1883 173C57.9388 171.337 57.8135 169.657 57.8135 167.975C57.8135 166.206 57.9521 164.44 58.228 162.692L58.2455 162.581L58.9655 160.133L59.736 157.822C59.7982 157.635 59.876 157.454 59.9687 157.281C60.5901 156.115 60.5045 154.7 59.7472 153.618ZM162.068 35.5708V74.7687C162.068 75.035 162.111 75.2996 162.195 75.5523C162.301 75.8706 162.471 76.1641 162.694 76.415L162.951 76.7035C163.319 77.1179 163.763 77.4582 164.259 77.7062L164.66 77.9068L165.812 78.4828C167.154 79.0579 168.54 79.5247 169.956 79.8788L170.132 79.9228L171.86 80.3548L172.733 80.573C172.917 80.619 173.089 80.7042 173.237 80.8227C173.55 81.0731 173.732 81.4521 173.732 81.8529V183.747L173.876 185.043L174.02 185.619C174.116 186.002 174.253 186.373 174.43 186.726L174.452 186.771L174.609 187.006C174.696 187.137 174.796 187.259 174.908 187.37C174.988 187.451 175.074 187.525 175.164 187.593L175.604 187.923L176.036 188.211L176.081 188.233C176.434 188.41 176.805 188.547 177.188 188.643L177.908 188.787L178.916 189.075C180.056 189.265 181.223 189.218 182.344 188.938L182.372 188.931C182.66 188.835 182.94 188.719 183.211 188.583L183.38 188.499L183.812 188.211L183.948 188.12C184.145 187.989 184.328 187.839 184.496 187.671C184.616 187.551 184.727 187.423 184.829 187.287L184.837 187.276C185.017 187.036 185.168 186.775 185.286 186.499L185.54 185.907L185.684 185.475L185.828 184.899L185.972 183.747V12.6495C185.972 11.0729 184.694 9.79481 183.118 9.79481C182.909 9.79481 182.702 9.8176 182.498 9.86279L180.212 10.3708L180.024 10.4372C178.523 10.9671 177.088 11.6697 175.748 12.5308L175.678 12.5685C174.48 13.2139 173.346 13.9728 172.292 14.8348C171.241 15.6946 170.316 16.6972 169.543 17.8135L169.412 18.0028C168.646 18.8647 167.967 19.8005 167.386 20.7966L167.252 21.0268L166.532 22.6108L165.812 24.1948C164.95 25.632 164.216 27.1425 163.619 28.7088L163.364 29.3788L162.788 30.9628L162.5 32.2588C162.213 33.3101 162.068 34.395 162.068 35.4847V35.5708Z" fill="#9B620C"/>
</svg>
