<svg width="15" height="8" viewBox="0 0 15 8" fill="none" xmlns="http://www.w3.org/2000/svg">
<path d="M0.320813 6.97074C0.526291 7.14821 0.804943 7.2479 1.09549 7.2479C1.38604 7.2479 1.66469 7.14821 1.87017 6.97074L7.294 2.28495L12.7178 6.97074C12.9245 7.14318 13.2013 7.23859 13.4886 7.23643C13.7759 7.23428 14.0507 7.13472 14.2538 6.95921C14.457 6.7837 14.5722 6.54627 14.5747 6.29807C14.5772 6.04987 14.4668 5.81075 14.2672 5.63221L8.06867 0.277159C7.86319 0.099694 7.58454 0 7.294 0C7.00345 0 6.7248 0.099694 6.51932 0.277159L0.320813 5.63221C0.115397 5.80973 0 6.05047 0 6.30148C0 6.55249 0.115397 6.79322 0.320813 6.97074Z" fill="#CCCCCC"/>
</svg>
