<svg width="10" height="52" viewBox="0 0 10 52" fill="none" xmlns="http://www.w3.org/2000/svg">
<path d="M2.81809 0.744719L3.4105 0.54725C4.5009 0.183783 5.67977 0.183783 6.77017 0.54725L7.30615 0.725911C8.10875 0.993442 8.79576 1.52731 9.25325 2.23895C9.63785 2.83722 9.84234 3.53345 9.84234 4.24467V47.5176C9.84234 48.2661 9.64956 49.002 9.28258 49.6544C8.80551 50.5025 8.05835 51.1666 7.16011 51.5409L6.98205 51.6151C5.77135 52.1195 4.40932 52.1195 3.19862 51.6151L2.95479 51.5135C2.0958 51.1556 1.36938 50.5394 0.876176 49.7502C0.430597 49.0373 0.194336 48.2135 0.194336 47.3728V4.38499C0.194336 3.58523 0.444225 2.80546 0.909074 2.15467C1.38043 1.49477 2.04875 1.00117 2.81809 0.744719Z" fill="#9B620C"/>
</svg>
