<svg width="4" height="16" viewBox="0 0 4 16" fill="none" xmlns="http://www.w3.org/2000/svg">
<path d="M1.44952 0.874455L1.61408 0.819603C1.91697 0.71864 2.24444 0.71864 2.54732 0.819603L2.69621 0.869231C2.91915 0.943545 3.10999 1.09184 3.23707 1.28952C3.3439 1.45571 3.4007 1.6491 3.4007 1.84667V13.8669C3.4007 14.0748 3.34715 14.2793 3.24522 14.4605C3.1127 14.6961 2.90515 14.8805 2.65564 14.9845L2.60618 15.0051C2.26987 15.1452 1.89153 15.1452 1.55523 15.0051L1.4875 14.9769C1.24889 14.8775 1.0471 14.7063 0.910103 14.4871C0.786331 14.2891 0.720703 14.0602 0.720703 13.8267V1.88564C0.720703 1.66349 0.790117 1.44688 0.919241 1.26611C1.05017 1.0828 1.23582 0.945691 1.44952 0.874455Z" fill="#9B620C"/>
</svg>
