<svg width="11" height="52" viewBox="0 0 11 52" fill="none" xmlns="http://www.w3.org/2000/svg">
<path d="M3.11204 0.744719L3.70445 0.54725C4.79485 0.183783 5.97372 0.183783 7.06412 0.54725L7.6001 0.725911C8.40269 0.993442 9.08971 1.52731 9.5472 2.23895C9.9318 2.83722 10.1363 3.53345 10.1363 4.24467V47.5176C10.1363 48.2661 9.94351 49.002 9.57653 49.6544C9.09946 50.5025 8.3523 51.1666 7.45406 51.5409L7.276 51.6151C6.0653 52.1195 4.70326 52.1195 3.49256 51.6151L3.24874 51.5135C2.38974 51.1556 1.66333 50.5394 1.17012 49.7502C0.724542 49.0373 0.488281 48.2135 0.488281 47.3728V4.38499C0.488281 3.58523 0.73817 2.80546 1.20302 2.15467C1.67438 1.49477 2.34269 1.00117 3.11204 0.744719Z" fill="#9B620C"/>
</svg>
