<svg width="13" height="13" viewBox="0 0 13 13" fill="none" xmlns="http://www.w3.org/2000/svg">
<path d="M1.39941 9.3481V12.2041H4.25542L11.8514 4.60808C11.9629 4.49663 12.0514 4.36433 12.1118 4.21865C12.1722 4.07297 12.2034 3.91676 12.2034 3.75906C12.2034 3.60136 12.1722 3.44521 12.1118 3.29954C12.0514 3.15386 11.9629 3.02156 11.8514 2.91011L10.6934 1.75208C10.582 1.6405 10.4496 1.55202 10.3039 1.49163C10.1582 1.43124 10.0021 1.40015 9.84439 1.40015C9.68669 1.40015 9.53054 1.43124 9.38486 1.49163C9.23919 1.55202 9.10681 1.6405 8.99536 1.75208L1.39941 9.3481Z" stroke="white" stroke-width="1.2" stroke-linejoin="round"/>
</svg>
