<svg width="15" height="8" viewBox="0 0 15 8" fill="none" xmlns="http://www.w3.org/2000/svg">
<path d="M14.2534 0.277306C14.0479 0.0998416 13.7693 0.000147343 13.4787 0.000147343C13.1882 0.000147343 12.9095 0.0998416 12.7041 0.277306L7.28022 4.9631L1.85639 0.277306C1.64974 0.104871 1.37295 0.00945663 1.08566 0.0116134C0.798364 0.0137701 0.523542 0.113326 0.320387 0.288837C0.11723 0.464349 0.00199604 0.701775 -0.000500679 0.949976C-0.0029974 1.19818 0.107446 1.4373 0.30704 1.61583L6.50555 6.97089C6.71103 7.14835 6.98968 7.24805 7.28022 7.24805C7.57077 7.24805 7.84942 7.14835 8.0549 6.97089L14.2534 1.61583C14.4588 1.43831 14.5742 1.19758 14.5742 0.946569C14.5742 0.695559 14.4588 0.454824 14.2534 0.277306Z" fill="#CCCCCC"/>
</svg>
